<?xml version="1.0" standalone="no"?>
<!DOCTYPE svg PUBLIC "-//W3C//DTD SVG 20010904//EN"
 "http://www.w3.org/TR/2001/REC-SVG-20010904/DTD/svg10.dtd">
<svg version="1.0" xmlns="http://www.w3.org/2000/svg"
 width="646.000000pt" height="646.000000pt" viewBox="0 0 646.000000 646.000000"
 preserveAspectRatio="xMidYMid meet">

<g transform="translate(0.000000,646.000000) scale(0.100000,-0.100000)"
fill="#000000" stroke="none">
<path d="M2384 5370 c-119 -25 -249 -137 -321 -275 -233 -452 -42 -1087 366
-1211 101 -30 222 -8 325 61 194 129 310 441 277 746 -34 312 -197 575 -411
659 -59 23 -175 33 -236 20z m271 -716 c61 -118 112 -220 113 -225 2 -5 -21
-9 -52 -9 l-56 0 -26 51 -26 51 -45 -6 c-25 -3 -58 -6 -73 -6 -25 0 -29 -5
-41 -59 l-13 -59 -48 -10 c-27 -5 -50 -6 -53 -2 -2 4 22 112 54 241 58 232 59
234 87 240 68 15 62 23 179 -207z"/>
<path d="M2502 4667 c-7 -25 -12 -48 -12 -51 0 -9 58 -7 63 2 3 4 -5 27 -17
51 l-23 44 -11 -46z"/>
<path d="M3881 5335 c-226 -64 -424 -298 -508 -600 -25 -89 -28 -117 -28 -255
0 -121 4 -170 19 -225 135 -497 626 -542 927 -86 59 90 100 187 136 318 23 86
26 116 26 248 -1 135 -4 159 -28 235 -60 186 -143 290 -281 352 -63 27 -189
33 -263 13z m-81 -522 c7 -8 1 -86 -15 -218 l-8 -60 24 30 c13 17 26 32 29 35
3 3 27 31 53 63 27 31 52 57 57 57 4 0 18 -44 30 -97 33 -151 31 -150 74 -27
21 60 40 119 43 132 4 15 11 21 22 18 9 -2 31 -8 49 -11 40 -8 40 -9 -7 -135
-18 -47 -44 -119 -58 -160 -14 -41 -34 -93 -43 -116 l-18 -41 -45 11 -45 10
-21 83 c-12 46 -21 94 -21 106 -1 22 -1 22 -23 -4 -39 -45 -102 -122 -108
-131 -4 -6 -23 -6 -50 -1 l-44 9 1 64 c0 60 17 256 30 359 l6 43 40 -5 c22 -3
44 -9 48 -14z"/>
<path d="M1397 4176 c-124 -35 -217 -137 -273 -301 -25 -73 -28 -93 -28 -225
0 -120 4 -159 23 -225 64 -228 199 -410 366 -495 66 -33 74 -35 174 -35 98 0
110 2 158 29 75 42 140 111 178 191 54 113 60 145 59 320 -1 143 -3 169 -26
241 -94 294 -293 494 -508 509 -48 3 -92 0 -123 -9z m244 -390 c47 -20 85 -63
100 -113 10 -36 9 -49 -5 -87 -23 -61 -57 -91 -124 -112 -31 -10 -58 -18 -59
-19 -1 0 8 -31 21 -67 l23 -67 -26 -10 c-14 -6 -37 -12 -50 -13 -22 -3 -27 8
-92 205 -56 168 -67 211 -57 221 18 17 177 75 209 75 15 1 42 -5 60 -13z"/>
<path d="M1523 3680 l-42 -19 19 -53 c21 -58 26 -60 91 -32 46 20 62 51 44 84
-12 22 -36 38 -60 39 -5 0 -29 -8 -52 -19z"/>
<path d="M4860 4175 c-119 -34 -233 -125 -319 -257 -68 -102 -113 -218 -135
-345 -42 -235 13 -455 143 -583 82 -80 145 -103 263 -98 75 4 96 9 160 41 94
46 161 106 227 201 177 256 214 587 93 834 -83 169 -261 254 -432 207z m165
-441 c37 -17 37 -18 31 -62 -3 -25 -8 -48 -11 -50 -3 -3 -27 5 -53 17 -60 28
-117 26 -117 -4 0 -14 17 -28 60 -50 96 -48 131 -116 99 -194 -15 -36 -28 -51
-64 -68 -55 -28 -93 -29 -173 -3 -90 30 -100 40 -92 89 4 23 10 43 15 46 4 3
27 -6 51 -19 24 -14 65 -27 91 -31 39 -6 49 -4 67 14 29 29 18 47 -48 80 -75
39 -102 69 -108 125 -6 53 21 99 71 122 39 18 130 12 181 -12z"/>
<path d="M3045 3596 c-186 -45 -378 -206 -515 -431 -36 -59 -90 -147 -120
-197 -75 -123 -190 -263 -370 -453 -218 -228 -272 -306 -319 -459 -44 -143
-37 -376 18 -545 87 -271 249 -406 522 -437 89 -10 274 22 459 79 432 132 486
134 795 37 260 -82 324 -94 500 -95 153 0 163 1 233 29 246 96 391 364 394
726 2 183 -47 330 -152 462 -21 26 -115 128 -210 225 -197 204 -301 337 -423
543 -143 240 -260 370 -413 456 -116 65 -279 89 -399 60z"/>
</g>
</svg>
